<svg id="illustration_layer_copy_4" data-name="illustration_layer copy 4" xmlns="http://www.w3.org/2000/svg" viewBox="0 0 400 400"><defs><style>.cls-1,.cls-16,.cls-9{fill:#2b2b2b;}.cls-1{opacity:0.1;}.cls-2{fill:#846400;}.cls-3{fill:#755800;}.cls-4{fill:#9d7700;}.cls-5{fill:#bb8e2d;}.cls-6{fill:#b48a00;}.cls-7{fill:#be8e00;}.cls-8{fill:#cbac14;}.cls-9{opacity:0.2;}.cls-10{fill:#fce3d4;}.cls-11{fill:#f4c9b2;}.cls-12{fill:#f3d65d;}.cls-13{fill:#35291b;}.cls-14{fill:#ebebea;}.cls-15{fill:#46382d;}.cls-17{fill:#ffefe7;}.cls-18{fill:#c1907d;}.cls-19{fill:#fff;}.cls-20{fill:#5f5044;}.cls-21{fill:#ab913c;}.cls-22{fill:#cdcdcc;}.cls-23{fill:#a2a2a2;}.cls-24{fill:#f1bc68;}.cls-25{fill:#e1a842;}</style></defs><title>explorers_ESFP_famous_fictional_dandelion_the_witcher</title><polygon class="cls-1" points="108.75 386.57 203.33 376.5 308 389.54 210.64 400 108.75 386.57"/><polygon class="cls-2" points="143.74 217.3 122.44 230.75 112.75 187.7 129.27 198.67 143.74 217.3"/><polygon class="cls-2" points="151.63 281.33 147.88 302.67 168.44 316.67 190.32 319.33 197 315.17 200 282.67 151.63 281.33"/><polygon class="cls-3" points="147.88 302.67 192.31 310.68 199.56 312.67 195.2 325 178.5 325 161.84 320.33 147.88 302.67"/><polygon class="cls-4" points="190.32 289 192.31 310.68 225.5 313 253.1 306 246.07 278.48 225.5 279.98 190.32 289"/><polygon class="cls-2" points="192.31 310.68 204.25 328 216.5 329.13 234.5 326.33 253.1 306 192.31 310.68"/><polygon class="cls-5" points="232.92 279.44 237.5 307.2 230 315.13 227.69 307.96 225.19 282.42 232.92 279.44"/><polygon class="cls-5" points="213.3 287.28 213.5 309.05 210.13 312 204.71 309.73 204.71 286.29 213.3 287.28"/><polygon class="cls-6" points="227.69 307.96 237.5 307.2 225.19 329.66 220.08 328.74 227.69 307.96"/><polygon class="cls-6" points="204.71 309.73 213.5 309.05 215.69 328.74 210.5 328.28 204.71 309.73"/><polygon class="cls-5" points="185 285.75 183.15 309.05 179.5 310.25 174.95 307.55 179.52 285.75 185 285.75"/><polygon class="cls-5" points="168.67 282.81 167.39 306.19 163.32 306 158.57 304.6 163.85 282.07 168.67 282.81"/><polygon class="cls-6" points="174.95 307.55 183.15 309.05 187.36 325 181.5 325 174.95 307.55"/><polygon class="cls-6" points="167.39 306.19 174.8 323.5 170.13 323.5 158.57 304.6 167.39 306.19"/><polygon class="cls-7" points="205.25 336.63 208.67 364.67 218.75 370 225.92 366.67 232.5 335.38 216.5 331 205.25 336.63"/><polygon class="cls-7" points="196.33 334.67 200.71 366.51 186.85 366.51 181.24 360 167.38 331 178.5 325 196.33 334.67"/><polygon class="cls-4" points="234.5 326.33 232.5 335.38 205.25 336.63 204.25 328 234.5 326.33"/><polygon class="cls-4" points="195.2 325 196.33 334.67 167.38 331 161.84 320.33 195.2 325"/><polygon class="cls-8" points="208.67 364.67 203.67 378.5 218.25 383.98 231.52 381 225.92 366.67 208.67 364.67"/><polygon class="cls-4" points="203.67 378.5 231.52 381 233.86 386.75 214.78 389.54 200.71 386.75 203.67 378.5"/><rect class="cls-2" x="200.71" y="386.75" width="33.15" height="5.57"/><polygon class="cls-8" points="181.24 360 166.08 370.83 186.85 383.96 200.71 366.51 181.24 360"/><polygon class="cls-4" points="200.71 366.51 185.18 379.18 166.08 370.83 151.72 381.18 171.91 382.93 200.71 381.18 200.71 366.51"/><rect class="cls-2" x="151.64" y="381.18" width="49.07" height="5.57"/><polygon class="cls-2" points="278.67 181.43 288.67 197.8 243.26 217.3 264.7 190.48 278.67 181.43"/><polygon class="cls-3" points="275.67 163.67 278.67 181.43 243.26 217.3 261.49 174.67 275.67 163.67"/><polygon class="cls-2" points="256.33 163.67 267.05 158.67 275.67 163.67 243.26 217.3 248 181.88 256.33 163.67"/><polygon class="cls-6" points="294 190.48 262.72 207.01 264.7 220.51 286.67 234 299.19 209.27 294 190.48"/><polygon class="cls-4" points="262.72 207.01 286.67 234 236.66 225.75 243.26 217.3 262.72 207.01"/><polygon class="cls-9" points="285.33 207.01 293.5 220.51 299.19 209.27 292.26 204 285.33 207.01"/><polygon class="cls-10" points="295.33 192.67 307.34 191.55 318.33 192.67 313.68 202.47 299.19 209.27 285.33 207.01 289.71 198.67 295.33 192.67"/><polygon class="cls-11" points="318.33 192.67 333.67 194.1 313.68 206.32 299.19 209.27 318.33 192.67"/><polygon class="cls-11" points="294 190.48 305.28 180.93 309.68 185.63 300.75 198.8 289.71 198.67 294 190.48"/><polygon class="cls-6" points="240.86 258.11 244.52 272.45 190.32 289 153 274.88 155.52 263.25 159.24 245.48 216.25 250.43 240.86 258.11"/><polygon class="cls-3" points="117.5 178.39 112.75 187.7 143.74 217.3 147.33 209.98 133.5 191.55 117.5 178.39"/><polygon class="cls-2" points="130 175.25 117.5 178.39 147.33 209.98 153.63 207.23 146.33 187.7 130 175.25"/><polygon class="cls-3" points="136.25 165.33 130 175.25 147.33 209.98 158.37 202.01 146.27 178.01 136.25 165.33"/><polygon class="cls-2" points="150.33 156.74 141.49 156.74 136.25 165.33 158.37 202.01 160.53 179 150.33 156.74"/><polygon class="cls-6" points="238.66 145.2 246.49 160.13 249.62 163.67 256.33 163.67 237 243 166.5 248.75 158.37 202.01 150.33 156.74 156.35 158.67 160.95 154.51 238.66 145.2"/><polygon class="cls-4" points="246.49 160.13 227.69 164.66 249.62 150.51 246.49 160.13"/><polygon class="cls-8" points="256.33 163.67 224.08 200 218.25 252.5 209.5 249.84 213.5 197.5 246.49 160.13 256.33 163.67"/><polygon class="cls-8" points="195.2 160.13 201.25 245.92 186.36 244.53 188.7 164.66 195.2 160.13"/><polygon class="cls-8" points="160.95 154.51 174.8 200 179.5 250.43 166.9 245.48 166.25 200.98 150.33 156.74 160.95 154.51"/><polygon class="cls-12" points="256.33 163.67 249.62 171.23 241.1 166.24 246.49 160.13 256.33 163.67"/><polygon class="cls-12" points="227.69 164.66 241.1 166.24 243.26 178.39 227.69 181.43 227.69 164.66"/><polygon class="cls-12" points="214.38 174.63 227.69 181.43 220.24 189.87 209.18 185.61 214.38 174.63"/><polygon class="cls-12" points="164.84 167.28 174.8 171.52 178.39 162.48 167.75 158.67 164.84 167.28"/><polygon class="cls-12" points="183.24 170.09 174.8 171.52 179.17 184.5 188.17 181.88 183.24 170.09"/><polygon class="cls-2" points="267.05 83.71 249.36 101.95 241.1 74.54 267.05 83.71"/><polygon class="cls-13" points="143.93 116.75 140.22 138.21 160.95 154.51 170.82 143.47 143.93 116.75"/><polygon class="cls-14" points="254.59 130.65 266.42 139.68 227.69 164.66 199.89 160.08 186.17 159.72 155.52 170.58 164.51 145.88 176.24 131.69 225.77 127.63 254.59 130.65"/><polygon class="cls-12" points="227.69 8.34 213.5 11.32 209.64 10.16 157.96 15.38 138.87 42.01 142.66 59.98 170.82 53.02 180.44 50.31 225.8 44.89 227.69 8.34"/><polygon class="cls-13" points="128.22 91.11 143.93 116.75 146.27 91.11 138.51 74.13 128.22 91.11"/><polygon class="cls-10" points="135.26 61.15 143.93 116.75 164.51 145.88 176.78 144.55 186.17 159.72 198.81 154.51 224.08 142.39 229.86 91.84 211.99 55.73 192.31 52.12 135.26 61.15"/><polygon class="cls-11" points="211.99 55.73 216.05 106.1 195.2 144.73 199.89 160.08 224.08 142.39 229.86 91.84 211.99 55.73"/><polygon class="cls-11" points="197.9 73.42 187.25 70.9 176.96 74.33 173.17 79.56 165.23 80.46 162.52 77.76 150.92 75.23 143.74 79.56 176.96 105.2 197.9 73.42"/><polygon class="cls-15" points="198.81 70.9 187.43 68.01 174.8 70.9 176.96 74.33 187.25 70.9 197.9 73.42 198.81 70.9"/><polygon class="cls-15" points="143.74 79.56 142.66 77.58 150.65 73.2 163.24 74.33 162.52 77.76 151.53 76.13 143.74 79.56"/><circle class="cls-16" cx="186.35" cy="83.35" r="3.97"/><circle class="cls-16" cx="156.56" cy="87.14" r="3.97"/><polygon class="cls-17" points="173.17 79.56 172.72 92.97 176.96 105.2 167.75 106.1 168.93 93.64 165.23 80.46 173.17 79.56"/><polygon class="cls-18" points="176.96 105.2 172.99 111.88 167.75 106.1 176.96 105.2"/><polygon class="cls-18" points="176.78 144.55 209.64 140.94 199.89 160.08 192.31 162.14 186.17 159.72 176.78 144.55"/><polygon class="cls-18" points="158.37 118.92 195.2 114.04 184.54 128.85 167.75 130.65 158.37 118.92"/><polygon class="cls-19" points="163.78 121.27 188.7 118.15 183.15 126 168.52 127.63 163.78 121.27"/><polygon class="cls-15" points="186.67 109.35 201.97 114.63 183.55 113.41 180.44 111.11 186.67 109.35"/><polygon class="cls-15" points="162.29 112.73 167.44 113.14 165.95 115.85 153.63 121.13 162.29 112.73"/><polygon class="cls-15" points="172.04 132.16 175.16 137.11 170.82 145.2 185.95 143.55 178.95 136.7 180.37 131.22 172.04 132.16"/><polygon class="cls-15" points="160.53 57.15 128.22 91.11 122.44 81.37 135.26 61.15 147.25 56.5 160.53 57.15"/><polygon class="cls-13" points="213.5 74.54 226.85 118.15 237.5 95.44 221.68 77.76 213.5 74.54"/><polygon class="cls-20" points="229.86 91.84 224.08 142.39 239.79 150.51 243.94 101.05 229.86 91.84"/><polygon class="cls-13" points="241.49 103.67 239.79 150.51 264.7 120.72 248.09 106.1 241.49 103.67"/><polygon class="cls-15" points="192.31 52.12 229.86 91.84 241.49 103.67 251.52 106.1 249 83.17 211.99 55.73 192.31 52.12"/><polygon class="cls-20" points="264.7 120.72 249 83.17 241.49 103.67 264.7 120.72"/><polygon class="cls-2" points="135.26 61.15 192.31 52.12 188.7 47.61 174.8 44.89 152.59 46.25 133.45 52.12 135.26 61.15"/><polygon class="cls-4" points="174.8 44.89 192.31 52.12 215.78 62.23 219.03 53.02 209.64 39.53 174.8 44.89 174.8 44.89"/><polygon class="cls-21" points="215.78 62.23 235.55 61.15 270.75 60.6 267.05 83.71 249 83.17 229.86 91.84 215.78 62.23"/><polygon class="cls-21" points="209.64 39.53 236.63 47.61 270.75 60.6 241.1 65.12 215.78 62.23 209.64 39.53"/><polygon class="cls-8" points="270.75 60.6 227.69 8.34 209.64 39.53 270.75 60.6"/><polygon class="cls-8" points="152.59 48.77 142.66 39.53 135.08 36.64 133.45 52.12 152.59 48.77"/><polygon class="cls-21" points="172.36 35.6 163.78 31.57 147.53 32.98 152.59 48.77 174.8 44.89 172.36 35.6"/><polygon class="cls-8" points="172.36 35.6 209.64 39.53 174.8 44.89 172.36 35.6"/><polygon class="cls-8" points="172.36 35.6 147.53 32.98 209.64 10.16 227.69 8.34 172.36 35.6"/><polygon class="cls-8" points="157.96 15.38 135.08 36.64 152.59 48.77 147.53 32.98 157.96 15.38"/><polygon class="cls-8" points="215.78 62.23 249 83.17 270.75 60.6 215.78 62.23"/><polygon class="cls-22" points="153.63 41.99 163.78 27.01 165.23 0 146.52 12.5 143.74 19.25 147.53 25.07 143.02 23.25 141.49 30.68 150.44 42.04 153.63 41.99"/><polygon class="cls-23" points="155.52 48.26 151.02 33.35 165.23 0 147.53 32.98 152.59 48.77 155.52 48.26"/><polygon class="cls-22" points="186.17 159.72 174.8 200 187.52 203.15 193.21 161.52 186.17 159.72"/><polygon class="cls-14" points="186.36 170.58 193.67 159.92 202.44 167.08 213.5 197.5 187.14 215.49 186.36 170.58"/><polygon class="cls-19" points="186.17 159.72 199.89 160.08 202.44 167.08 186.36 170.58 186.17 159.72"/><polygon class="cls-2" points="236.96 242.75 159.24 245.48 157.73 258.11 240.86 258.11 236.96 242.75"/><polygon class="cls-4" points="186.36 244.53 196.02 244.19 205.64 258.11 204.5 267.33 193 269.33 186.36 244.53"/><polygon class="cls-2" points="244.52 272.45 229.58 275.67 191.2 281.67 153 274.88 151.63 281.33 190.32 289 246.07 278.48 244.52 272.45"/><polygon class="cls-9" points="168.67 284.71 147.88 302.67 153 274.88 158.37 270.1 179.09 257.94 168.67 284.71"/><polygon class="cls-12" points="126.55 215.94 158.37 202.01 177.47 228.98 151.63 263.4 122.75 264.5 122.44 230.75 126.55 215.94"/><polygon class="cls-21" points="158.37 202.01 175.94 212.24 192.2 236.25 177.47 228.98 158.37 202.01"/><polygon class="cls-4" points="192.2 236.25 163.78 276.79 151.63 263.4 177.47 228.98 192.2 236.25"/><polygon class="cls-21" points="163.78 276.79 147.33 274.49 123.75 264.5 151.63 263.4 163.78 276.79"/><polygon class="cls-4" points="141.33 228.21 154.28 226.75 157.73 235.5 148.39 247.75 138.84 246.21 137.15 234.82 141.33 228.21"/><polygon class="cls-24" points="157.73 235.5 237.5 280.1 234.18 287.11 198.85 287.39 148.39 247.75 157.73 235.5"/><polygon class="cls-25" points="209.11 264.22 237.5 280.1 234.18 287.11 198.85 287.39 201.25 276.79 209.11 264.22"/><polygon class="cls-12" points="205.16 262.02 192.31 281.74 198.85 287.39 209.11 264.22 205.16 262.02"/><polygon class="cls-25" points="216.62 268.42 215.09 258.11 227.69 266.33 216.62 268.42"/><polygon class="cls-25" points="229.58 275.67 227.69 266.33 239.28 273.58 229.58 275.67"/><polygon class="cls-25" points="213.3 287.28 221.39 295.74 204.71 295.74 213.3 287.28"/><polygon class="cls-21" points="137.37 211.21 122.44 230.75 126.55 215.94 137.37 211.21"/><polygon class="cls-8" points="206.4 270.62 206.24 270.52 127.98 220.93 128.51 220.09 206.61 269.57 216.62 268.42 219.06 269.79 206.4 270.62"/><polygon class="cls-8" points="229.58 275.67 204.1 276.17 203.97 276.08 126.55 223.41 127.11 222.59 204.41 275.17 227.11 274.29 229.58 275.67"/><polygon class="cls-8" points="213.3 287.28 201.31 281.78 125.72 226.47 126.31 225.66 201.82 280.93 217.08 287.25 213.3 287.28"/><polygon class="cls-6" points="112.75 187.7 95.75 217.6 121.29 244.19 127.97 242.75 137.15 234.82 112.75 187.7"/><polygon class="cls-18" points="138.25 238.38 152.13 250.69 149.78 255.67 138.93 252.5 138.25 238.38"/><polygon class="cls-10" points="133.26 240.35 138.25 238.38 145.09 263.66 137.13 267.24 121.75 264.5 121.43 250.43 133.26 240.35"/><polygon class="cls-11" points="145.09 263.66 147.33 274.49 133.57 272.57 121.75 264.5 145.09 263.66"/><polygon class="cls-8" points="137.15 234.82 138.25 238.38 129.25 251.43 121.43 250.43 121.29 244.19 137.15 234.82"/></svg>